<?xml version="1.0" encoding="utf-8"?>
<!-- Generator: Adobe Illustrator 12.0.0, SVG Export Plug-In . SVG Version: 6.00 Build 51448)  -->
<!DOCTYPE svg PUBLIC "-//W3C//DTD SVG 1.1//EN" "http://www.w3.org/Graphics/SVG/1.1/DTD/svg11.dtd" [
	<!ENTITY ns_svg "http://www.w3.org/2000/svg">
	<!ENTITY ns_xlink "http://www.w3.org/1999/xlink">
]>
<svg  version="1.1" id="Layer_1" xmlns="&ns_svg;" xmlns:xlink="&ns_xlink;" width="151" height="62" viewBox="0 0 151 62"
	 overflow="visible" enable-background="new 0 0 151 62" xml:space="preserve">
<path fill="#8CC33F" d="M120.963,0.692c-0.534,0.493-0.843,1.195-0.843,1.929c0,0.658,0.245,1.288,0.683,1.77
	c0,0,23.416,25.852,23.992,26.486c-0.575,0.653-23.701,26.5-23.934,26.767c-0.424,0.479-0.656,1.094-0.656,1.734
	c0,0.749,0.316,1.462,0.873,1.959c0.52,0.465,1.19,0.696,1.885,0.659c0.693-0.046,1.331-0.354,1.793-0.879l25.501-28.535
	c0.893-1.011,0.875-2.517-0.03-3.51L124.641,0.847c-0.472-0.516-1.112-0.813-1.81-0.845C122.138-0.025,121.473,0.219,120.963,0.692"
	/>
<path fill="#005696" d="M105.272,0.692c-0.533,0.493-0.842,1.195-0.842,1.929c0,0.658,0.247,1.288,0.688,1.77
	c0,0,23.937,26.425,23.99,26.486c-0.054,0.061-23.935,26.767-23.935,26.767c-0.423,0.479-0.653,1.094-0.653,1.734
	c0,0.749,0.315,1.462,0.87,1.959c0.523,0.465,1.189,0.696,1.884,0.654c0.694-0.041,1.333-0.35,1.795-0.874l25.496-28.535
	c0.893-1.011,0.88-2.517-0.027-3.51L108.951,0.847c-0.473-0.516-1.113-0.813-1.809-0.845C106.448-0.025,105.787,0.219,105.272,0.692
	"/>
<path fill="#005696" d="M104.268,23.894h0.002l-2.067,1.879l-2.087-1.884c-0.19-0.165-0.475-0.15-0.637,0.037
	c-0.163,0.186-0.146,0.472,0.037,0.637l2.391,2.163c0.171,0.151,0.437,0.151,0.604-0.005c0,0,0,0.005-0.004,0.012
	c0.023-0.026,0.113-0.11,0.461-0.427l1.911-1.745c0.089-0.082,0.141-0.195,0.146-0.314v-0.021c0-0.115-0.04-0.225-0.12-0.307
	c-0.079-0.09-0.189-0.141-0.313-0.143C104.471,23.771,104.357,23.81,104.268,23.894"/>
<path fill="#005696" d="M28.373,32.842c0-2.006,0.871-3.203,2.332-3.203c1.503,0,2.394,1.189,2.394,3.185
	c0,2.075-0.858,3.271-2.354,3.271C29.235,36.093,28.373,34.905,28.373,32.842 M25.563,32.842c0,3.242,2.082,5.421,5.179,5.421
	c3.135,0,5.161-2.131,5.161-5.421c0-3.23-2.061-5.4-5.121-5.4C27.661,27.441,25.563,29.613,25.563,32.842"/>
<path fill="#005696" d="M50.278,31.695c0.179-1.334,1.006-2.16,2.167-2.16c1.15,0,1.929,0.805,2.089,2.16l0.004,0.05h-4.268
	L50.278,31.695 M47.42,32.9c0,3.195,2.061,5.342,5.122,5.342c2.33,0,4.087-1.296,4.694-3.466l0.014-0.044h-2.69l-0.006,0.023
	c-0.395,1.004-1.014,1.452-1.994,1.452c-1.412,0-2.227-0.917-2.289-2.575l-0.001-0.053h7.122v-0.306
	c0-3.599-1.897-5.833-4.946-5.833C49.534,27.441,47.42,29.738,47.42,32.9"/>
<polygon fill="#005696" points="77.374,27.735 77.374,31.412 73.607,31.412 73.607,27.735 70.82,27.735 70.82,37.945 73.607,37.945 
	73.607,33.684 77.374,33.684 77.374,37.945 80.161,37.945 80.161,27.735 "/>
<path fill="#005696" d="M92.384,28.789v9.155h2.787c0-0.084,0.004-9.155,0.004-9.155c0-0.674-0.522-1.081-1.396-1.081
	C92.907,27.709,92.384,28.118,92.384,28.789"/>
<path fill="#005696" d="M85.398,33.171h1.335c1.029,0,1.644,0.521,1.644,1.4c0,1.14-0.885,1.381-1.622,1.381h-1.356V33.171
	 M82.636,28.789c0,0-0.004,9.071-0.004,9.155h4.776c2.375,0,3.789-1.263,3.789-3.374c0-2.037-1.439-3.355-3.675-3.355h-2.126
	l0.004-2.426c0-0.674-0.519-1.081-1.384-1.081C83.153,27.709,82.636,28.118,82.636,28.789"/>
<path fill="#005696" d="M65.406,27.735v4.212l-0.033,0.013c-0.432,0.107-1.573,0.275-2.203,0.275c-1.153,0-1.487-0.438-1.487-1.947
	v-2.554h-2.791v3.121c0,2.258,1.228,3.554,3.369,3.554c1.228,0,2.569-0.3,3.09-0.43l0.055-0.017l-0.012,2.936
	c0,0.675,0.525,1.08,1.398,1.08c0.877,0,1.398-0.403,1.398-1.08v-9.166h-2.785"/>
<path fill="#005696" d="M37.059,27.735v2.21h3.277l-0.001,6.954c0,0.675,0.519,1.081,1.392,1.081c0.872,0,1.39-0.404,1.39-1.081
	l0.003-6.954h3.279v-2.21H37.059"/>
<path fill="#005696" d="M14.224,27.777v9.122c0,0.673,0.506,1.077,1.352,1.077s1.352-0.404,1.352-1.077l0.004-6.992h3.845
	l-0.014,6.992c0,0.673,0.508,1.077,1.36,1.077c0.854,0,1.364-0.404,1.364-1.077v-9.122H14.224"/>
<path fill="#005696" d="M-0.083,24.94c0,0,0.004,12.874,0.004,12.958h3.378c0.023-0.044,5.238-9.842,5.238-9.842v8.835
	c0,0.65,0.556,1.036,1.482,1.036c0.929,0,1.483-0.386,1.483-1.036c0,0,0.02-12.482,0.02-12.96H8.148
	c-0.025,0.049-5.238,9.82-5.238,9.82l-0.026-8.811c0-0.648-0.556-1.033-1.483-1.033C0.469,23.906-0.083,24.291-0.083,24.94"/>
<path fill="#005696" d="M76.376,1.978l-2.066,1.88l-2.085-1.886c-0.188-0.164-0.474-0.148-0.635,0.036
	c-0.081,0.09-0.123,0.208-0.116,0.328c0.006,0.119,0.062,0.231,0.152,0.312l2.389,2.161c0.174,0.153,0.436,0.153,0.605-0.005
	c0.001-0.002,2.369-2.162,2.369-2.162c0.087-0.081,0.138-0.195,0.145-0.311V2.308c0-0.113-0.04-0.222-0.12-0.306
	C76.844,1.818,76.559,1.806,76.376,1.978"/>
<path fill="#005696" d="M57.873,5.275c0,0,0.005,9.055,0.005,9.146h3.158c0.025-0.05,3.407-6.587,3.407-6.587l0.083-0.003
	l-0.022,5.54c0,0.672,0.508,1.073,1.352,1.073c0.846,0,1.354-0.401,1.354-1.073c0,0,0.006-8.689,0.008-9.162h-3.16
	c-0.022,0.049-3.405,6.586-3.405,6.586h-0.083l0.009-5.521c0-0.675-0.505-1.082-1.349-1.082C58.381,4.193,57.873,4.6,57.873,5.275"
	/>
<path fill="#005696" d="M97.492,28.802c0,0,0.008,9.055,0.008,9.145h3.161c0.023-0.053,3.405-6.587,3.405-6.587l0.083-0.004
	l-0.023,5.539c0,0.673,0.508,1.075,1.355,1.075c0.846,0,1.351-0.402,1.351-1.075c0,0,0.011-8.686,0.011-9.16h-3.166
	c-0.021,0.049-3.401,6.59-3.401,6.59h-0.086l0.007-5.523c0-0.674-0.506-1.08-1.352-1.08C98,27.723,97.492,28.128,97.492,28.802"/>
<path fill="#005696" d="M69.622,5.275c0,0,0.003,9.055,0.003,9.146h3.163c0.022-0.05,3.401-6.587,3.401-6.587l0.086-0.003
	l-0.023,5.54c0,0.672,0.504,1.073,1.355,1.073c0.846,0,1.35-0.401,1.35-1.073c0,0,0.009-8.689,0.009-9.162h-3.159
	c-0.023,0.049-3.406,6.586-3.406,6.586h-0.082l0.006-5.521c0-0.675-0.504-1.082-1.35-1.082C70.126,4.193,69.622,4.6,69.622,5.275"/>
<path fill="#005696" d="M52.759,4.215c-0.214,0.248-3.272,3.786-3.405,3.927l-0.077,0.087V4.215h-2.669v10.126h2.669v-3.119
	l0.021-0.017c0.037-0.031,0.609-0.622,0.949-0.976l0.236-0.243l3.083,4.141c0.39,0.518,1.015,0.53,1.673,0.034
	c0.418-0.318,0.633-0.68,0.633-1.036c0-0.201-0.07-0.399-0.209-0.588L52.27,8.151c0,0,3.452-3.795,3.584-3.936H52.759"/>
<path fill="#005696" d="M19.753,4.209c-0.023,0.063-2.173,7.031-2.173,7.031s-2.228-6.969-2.247-7.031H12.31
	c0.044,0.121,3.62,9.735,3.62,9.735c0,0.004,0.074,0.383,0.074,0.383c0,0.851-0.48,1.32-1.352,1.32
	c-0.001,0-0.517-0.017-0.517-0.017c-0.608,0-1.261,0.315-1.261,1.189c0,0.837,0.63,1.211,1.255,1.211l1.023,0.006
	c2.501,0,3.01-1.416,3.781-3.555c0,0,3.499-9.646,3.728-10.273H19.753"/>
<path fill="#005696" d="M34.862,9.455c0,3.185,1.99,5.239,5.063,5.239c2.577,0,4.441-1.521,4.751-3.874h-2.628
	c-0.195,1.235-0.834,1.762-2.124,1.762c-1.468,0-2.315-1.16-2.315-3.188c0-2.072,0.888-3.305,2.376-3.305
	c0.815,0,1.46,0.424,1.818,1.203c0.281,0.619,0.854,0.821,1.574,0.556c0.595-0.22,1.131-0.718,0.859-1.454
	c-0.544-1.491-2.146-2.378-4.273-2.378C36.864,4.018,34.862,6.15,34.862,9.455"/>
<path fill="#005696" d="M23.455,9.455c0,3.185,1.989,5.239,5.062,5.239c2.58,0,4.444-1.521,4.754-3.874h-2.628
	c-0.198,1.235-0.833,1.762-2.126,1.762c-1.472,0-2.315-1.16-2.315-3.188c0-2.072,0.887-3.305,2.375-3.305
	c0.819,0,1.467,0.424,1.821,1.203c0.281,0.619,0.857,0.821,1.578,0.556c0.587-0.22,1.129-0.718,0.858-1.454
	c-0.548-1.491-2.148-2.378-4.275-2.378C25.458,4.018,23.455,6.15,23.455,9.455"/>
<path fill="#005696" d="M-0.079,0.403c0,0.089-0.004,12.924-0.004,12.924c0,0.645,0.559,1.032,1.498,1.032
	c0.937,0,1.5-0.387,1.5-1.032L2.887,9.344h3.091c3.049,0,4.868-1.664,4.868-4.449c0-2.854-1.831-4.49-5.024-4.49L-0.079,0.403
	l2.966,2.496h2.709c1.065,0,2.342,0.352,2.342,2.032c0,1.376-0.75,2.015-2.364,2.015H2.887V2.899L-0.079,0.403"/>
<polygon fill="#005696" points="31.319,51.388 31.319,55.064 27.553,55.064 27.553,51.388 24.769,51.388 24.769,61.597 
	27.553,61.597 27.553,57.331 31.319,57.331 31.319,61.597 34.107,61.597 34.107,51.388 "/>
<path fill="#005696" d="M42.716,51.403c-0.027,0.031-3.486,4.018-3.486,4.018v-0.119v-3.896h-2.669v10.13h2.669v-3.121l0.024-0.017
	c0.035-0.029,0.582-0.604,0.915-0.946l0.266-0.272l3.083,4.142c0.392,0.517,1.015,0.53,1.673,0.031
	c0.418-0.315,0.633-0.68,0.633-1.034c0-0.203-0.071-0.402-0.209-0.587l-3.389-4.392c0,0,3.453-3.793,3.587-3.936H42.716"/>
<path fill="#005696" d="M-0.083,47.585v13.969h6.406c3.191,0,5.021-1.639,5.021-4.49c0-2.789-1.819-4.454-4.868-4.454H2.883v-2.516
	l6.247,0.021c0.645,0,1.026-0.476,1.026-1.271c0-0.799-0.381-1.272-1.026-1.272C9.131,47.572,0.003,47.585-0.083,47.585l2.966,7.423
	h3.191c1.075,0,2.359,0.349,2.359,2.013c0,1.392-0.742,2.034-2.342,2.034H2.883v-4.047L-0.083,47.585"/>
<path fill="#005696" d="M15.788,58.679c0-1.157,0.943-1.313,1.848-1.463c0.002,0,0.13-0.019,0.13-0.019l0.324-0.056
	c0.456-0.07,0.973-0.15,1.496-0.424l0.067-0.039v1.092c0,1.372-0.917,2.223-2.394,2.223C16.338,59.995,15.788,59.501,15.788,58.679
	 M13.789,52.972c-0.138,0.235-0.168,0.464-0.105,0.688c0.082,0.282,0.331,0.54,0.698,0.73c0.647,0.331,1.209,0.208,1.544-0.341
	c0.396-0.646,1.048-1.019,1.797-1.019c1.383,0,1.949,0.386,1.949,1.319c0,0.798-0.621,0.948-2.4,1.186
	c-1.943,0.252-4.365,0.566-4.365,3.254c0,1.916,1.373,3.104,3.579,3.104c1.206,0,2.315-0.424,3.126-1.193l0.067-0.061l0.011,0.092
	c0.028,0.338,0.062,0.515,0.178,0.842c-0.01,0.004,0.03,0.029,0.03,0.029s2.7-0.007,2.827-0.007c-0.006-0.022-0.02-0.048-0.02-0.048
	c-0.327-0.774-0.345-1.634-0.345-2.471V54.43c0-2.24-1.428-3.329-4.371-3.339C15.921,51.09,14.507,51.72,13.789,52.972"/>
</svg>
